<svg width="175pt" height="116pt" viewBox="0.00 0.00 175.00 116.00" xmlns="http://www.w3.org/2000/svg" xmlns:xlink="http://www.w3.org/1999/xlink">
<g id="graph1" class="graph" transform="scale(1 1) rotate(0) translate(4 112)">
<title>G</title>
<polygon fill="white" stroke="white" points="-4,5 -4,-112 172,-112 172,5 -4,5"></polygon>
<!-- div -->
<g id="node1" class="node"><title>div</title>
<ellipse fill="none" stroke="black" cx="84" cy="-90" rx="27" ry="18"></ellipse>
<text text-anchor="middle" x="84" y="-85.8" font-family="Times,serif" font-size="14.00">div</text>
</g>
<!-- Header -->
<g id="node3" class="node"><title>Header</title>
<ellipse fill="none" stroke="black" cx="38" cy="-18" rx="38.3682" ry="18"></ellipse>
<text text-anchor="middle" x="38" y="-13.8" font-family="Times,serif" font-size="14.00">Header</text>
</g>
<!-- div&#45;&gt;Header -->
<g id="edge2" class="edge"><title>div-&gt;Header</title>
<path fill="none" stroke="black" d="M73.5619,-73.1159C67.8793,-64.4685 60.721,-53.5754 54.3189,-43.833"></path>
<polygon fill="black" stroke="black" points="57.1328,-41.7419 48.716,-35.307 51.2829,-45.5862 57.1328,-41.7419"></polygon>
</g>
<!-- MovieList -->
<g id="node5" class="node"><title>MovieList</title>
<ellipse fill="none" stroke="black" cx="131" cy="-18" rx="36.3712" ry="18"></ellipse>
<text text-anchor="middle" x="131" y="-13.8" font-family="Times,serif" font-size="14.00">MovieList</text>
</g>
<!-- div&#45;&gt;MovieList -->
<g id="edge4" class="edge"><title>div-&gt;MovieList</title>
<path fill="none" stroke="black" d="M94.665,-73.1159C100.471,-64.4685 107.785,-53.5754 114.326,-43.833"></path>
<polygon fill="black" stroke="black" points="117.382,-45.5603 120.051,-35.307 111.571,-41.6582 117.382,-45.5603"></polygon>
</g>
</g>
</svg>
