<svg width="426pt" height="116pt" viewBox="0.00 0.00 426.00 116.00" xmlns="http://www.w3.org/2000/svg" xmlns:xlink="http://www.w3.org/1999/xlink">
<g id="graph1" class="graph" transform="scale(1 1) rotate(0) translate(4 112)">
<title>G</title>
<polygon fill="white" stroke="white" points="-4,5 -4,-112 423,-112 423,5 -4,5"></polygon>
<!-- App -->
<g id="node1" class="node"><title>App</title>
<ellipse fill="none" stroke="black" cx="160" cy="-90" rx="27.4962" ry="18"></ellipse>
<text text-anchor="middle" x="160" y="-85.8" font-family="Times,serif" font-size="14.00">App</text>
</g>
<!-- Header -->
<g id="node3" class="node"><title>Header</title>
<ellipse fill="none" stroke="black" cx="38" cy="-18" rx="38.3682" ry="18"></ellipse>
<text text-anchor="middle" x="38" y="-13.8" font-family="Times,serif" font-size="14.00">Header</text>
</g>
<!-- App&#45;&gt;Header -->
<g id="edge2" class="edge"><title>App-&gt;Header</title>
<path fill="none" stroke="black" d="M140.127,-77.5975C121.256,-66.7697 92.5549,-50.302 70.3794,-37.5783"></path>
<polygon fill="black" stroke="black" points="72.0434,-34.4979 61.6279,-32.557 68.5597,-40.5695 72.0434,-34.4979"></polygon>
</g>
<!-- EmployeeList -->
<g id="node5" class="node"><title>EmployeeList</title>
<ellipse fill="none" stroke="black" cx="160" cy="-18" rx="65.3197" ry="18"></ellipse>
<text text-anchor="middle" x="160" y="-13.8" font-family="Times,serif" font-size="14.00">EmployeeList</text>
</g>
<!-- App&#45;&gt;EmployeeList -->
<g id="edge4" class="edge"><title>App-&gt;EmployeeList</title>
<path fill="none" stroke="black" d="M160,-71.6966C160,-63.9827 160,-54.7125 160,-46.1124"></path>
<polygon fill="black" stroke="black" points="163.5,-46.1043 160,-36.1043 156.5,-46.1044 163.5,-46.1043"></polygon>
</g>
<!-- AddEmployeeForm -->
<g id="node7" class="node"><title>AddEmployeeForm</title>
<ellipse fill="none" stroke="black" cx="331" cy="-18" rx="87.6135" ry="18"></ellipse>
<text text-anchor="middle" x="331" y="-13.8" font-family="Times,serif" font-size="14.00">AddEmployeeForm</text>
</g>
<!-- App&#45;&gt;AddEmployeeForm -->
<g id="edge6" class="edge"><title>App-&gt;AddEmployeeForm</title>
<path fill="none" stroke="black" d="M182.707,-79.7045C208.423,-69.1775 251.03,-51.7364 283.991,-38.2435"></path>
<polygon fill="black" stroke="black" points="285.516,-41.4012 293.444,-34.3736 282.864,-34.923 285.516,-41.4012"></polygon>
</g>
</g>
</svg>