<svg width="990pt" height="188pt" viewBox="0.00 0.00 990.00 188.00" xmlns="http://www.w3.org/2000/svg" xmlns:xlink="http://www.w3.org/1999/xlink">
<g id="graph1" class="graph" transform="scale(1 1) rotate(0) translate(4 184)">
<title>G</title>
<polygon fill="white" stroke="white" points="-4,5 -4,-184 987,-184 987,5 -4,5"></polygon>
<!-- FilterableProductTable -->
<g id="node1" class="node"><title>FilterableProductTable</title>
<ellipse fill="none" stroke="black" cx="425" cy="-162" rx="100.1" ry="18"></ellipse>
<text text-anchor="middle" x="425" y="-157.8" font-family="Times,serif" font-size="14.00">FilterableProductTable</text>
</g>
<!-- SearchBar -->
<g id="node3" class="node"><title>SearchBar</title>
<ellipse fill="none" stroke="black" cx="359" cy="-90" rx="51.3755" ry="18"></ellipse>
<text text-anchor="middle" x="359" y="-85.8" font-family="Times,serif" font-size="14.00">SearchBar</text>
</g>
<!-- FilterableProductTable&#45;&gt;SearchBar -->
<g id="edge2" class="edge"><title>FilterableProductTable-&gt;SearchBar</title>
<path fill="none" stroke="black" d="M409.023,-144.055C400.715,-135.243 390.424,-124.328 381.34,-114.694"></path>
<polygon fill="black" stroke="black" points="383.782,-112.182 374.375,-107.307 378.689,-116.984 383.782,-112.182"></polygon>
</g>
<!-- ProductTable -->
<g id="node5" class="node"><title>ProductTable</title>
<ellipse fill="none" stroke="black" cx="491" cy="-90" rx="63.0906" ry="18"></ellipse>
<text text-anchor="middle" x="491" y="-85.8" font-family="Times,serif" font-size="14.00">ProductTable</text>
</g>
<!-- FilterableProductTable&#45;&gt;ProductTable -->
<g id="edge4" class="edge"><title>FilterableProductTable-&gt;ProductTable</title>
<path fill="none" stroke="black" d="M440.977,-144.055C449.165,-135.371 459.278,-124.644 468.264,-115.114"></path>
<polygon fill="black" stroke="black" points="470.857,-117.466 475.17,-107.789 465.764,-112.664 470.857,-117.466"></polygon>
</g>
<!-- ProdCategoryRow1 -->
<g id="node8" class="node"><title>ProdCategoryRow1</title>
<ellipse fill="none" stroke="black" cx="87" cy="-18" rx="87.6135" ry="18"></ellipse>
<text text-anchor="middle" x="87" y="-13.8" font-family="Times,serif" font-size="14.00">ProdCategoryRow1</text>
</g>
<!-- ProductTable&#45;&gt;ProdCategoryRow1 -->
<g id="edge7" class="edge"><title>ProductTable-&gt;ProdCategoryRow1</title>
<path fill="none" stroke="black" d="M445.027,-77.568C436.405,-75.5883 427.447,-73.6416 419,-72 315.277,-51.8437 288.267,-53.1211 184,-36 176.408,-34.7534 168.488,-33.4197 160.59,-32.0682"></path>
<polygon fill="black" stroke="black" points="161.072,-28.5998 150.623,-30.3518 159.884,-35.4982 161.072,-28.5998"></polygon>
</g>
<!-- ProdRow1 -->
<g id="node9" class="node"><title>ProdRow1</title>
<ellipse fill="none" stroke="black" cx="245" cy="-18" rx="52.0185" ry="18"></ellipse>
<text text-anchor="middle" x="245" y="-13.8" font-family="Times,serif" font-size="14.00">ProdRow1</text>
</g>
<!-- ProductTable&#45;&gt;ProdRow1 -->
<g id="edge8" class="edge"><title>ProductTable-&gt;ProdRow1</title>
<path fill="none" stroke="black" d="M447.869,-76.7268C404.824,-64.4785 338.789,-45.688 293.84,-32.8975"></path>
<polygon fill="black" stroke="black" points="294.598,-29.4744 284.022,-30.1038 292.682,-36.2071 294.598,-29.4744"></polygon>
</g>
<!-- ProdRow2 -->
<g id="node11" class="node"><title>ProdRow2</title>
<ellipse fill="none" stroke="black" cx="368" cy="-18" rx="52.0185" ry="18"></ellipse>
<text text-anchor="middle" x="368" y="-13.8" font-family="Times,serif" font-size="14.00">ProdRow2</text>
</g>
<!-- ProductTable&#45;&gt;ProdRow2 -->
<g id="edge10" class="edge"><title>ProductTable-&gt;ProdRow2</title>
<path fill="none" stroke="black" d="M464.007,-73.6382C446.059,-63.4237 422.313,-49.9099 402.928,-38.8777"></path>
<polygon fill="black" stroke="black" points="404.509,-35.7502 394.086,-33.8459 401.046,-41.834 404.509,-35.7502"></polygon>
</g>
<!-- ProdRow3 -->
<g id="node13" class="node"><title>ProdRow3</title>
<ellipse fill="none" stroke="black" cx="491" cy="-18" rx="52.0185" ry="18"></ellipse>
<text text-anchor="middle" x="491" y="-13.8" font-family="Times,serif" font-size="14.00">ProdRow3</text>
</g>
<!-- ProductTable&#45;&gt;ProdRow3 -->
<g id="edge12" class="edge"><title>ProductTable-&gt;ProdRow3</title>
<path fill="none" stroke="black" d="M491,-71.6966C491,-63.9827 491,-54.7125 491,-46.1124"></path>
<polygon fill="black" stroke="black" points="494.5,-46.1043 491,-36.1043 487.5,-46.1044 494.5,-46.1043"></polygon>
</g>
<!-- ProdCategoryRow2 -->
<g id="node15" class="node"><title>ProdCategoryRow2</title>
<ellipse fill="none" stroke="black" cx="649" cy="-18" rx="87.6135" ry="18"></ellipse>
<text text-anchor="middle" x="649" y="-13.8" font-family="Times,serif" font-size="14.00">ProdCategoryRow2</text>
</g>
<!-- ProductTable&#45;&gt;ProdCategoryRow2 -->
<g id="edge14" class="edge"><title>ProductTable-&gt;ProdCategoryRow2</title>
<path fill="none" stroke="black" d="M523.738,-74.496C547.164,-64.1172 578.97,-50.0259 604.67,-38.6399"></path>
<polygon fill="black" stroke="black" points="606.11,-41.8301 613.835,-34.5794 603.274,-35.4301 606.11,-41.8301"></polygon>
</g>
<!-- ProdRow4 -->
<g id="node17" class="node"><title>ProdRow4</title>
<ellipse fill="none" stroke="black" cx="807" cy="-18" rx="52.0185" ry="18"></ellipse>
<text text-anchor="middle" x="807" y="-13.8" font-family="Times,serif" font-size="14.00">ProdRow4</text>
</g>
<!-- ProductTable&#45;&gt;ProdRow4 -->
<g id="edge16" class="edge"><title>ProductTable-&gt;ProdRow4</title>
<path fill="none" stroke="black" d="M542.291,-79.2659C593.742,-69.2742 675.153,-52.8459 745,-36 749.328,-34.9561 753.813,-33.8248 758.3,-32.6586"></path>
<polygon fill="black" stroke="black" points="759.299,-36.015 768.068,-30.0704 757.506,-29.2485 759.299,-36.015"></polygon>
</g>
<!-- ProdRow5 -->
<g id="node19" class="node"><title>ProdRow5</title>
<ellipse fill="none" stroke="black" cx="930" cy="-18" rx="52.0185" ry="18"></ellipse>
<text text-anchor="middle" x="930" y="-13.8" font-family="Times,serif" font-size="14.00">ProdRow5</text>
</g>
<!-- ProductTable&#45;&gt;ProdRow5 -->
<g id="edge18" class="edge"><title>ProductTable-&gt;ProdRow5</title>
<path fill="none" stroke="black" d="M549.523,-83.1218C623.986,-75.106 756.342,-59.0579 868,-36 872.487,-35.0735 877.128,-34.007 881.76,-32.8693"></path>
<polygon fill="black" stroke="black" points="883.002,-36.1643 891.82,-30.2916 881.265,-29.3834 883.002,-36.1643"></polygon>
</g>
</g>
</svg>
