<svg width="720pt" height="260pt" viewBox="0.00 0.00 720.00 260.00" xmlns="http://www.w3.org/2000/svg" xmlns:xlink="http://www.w3.org/1999/xlink">
<g id="graph1" class="graph" transform="scale(1 1) rotate(0) translate(4 256)">
<title>G</title>
<polygon fill="white" stroke="white" points="-4,5 -4,-256 717,-256 717,5 -4,5"></polygon>
<!-- FilterableProductTable -->
<g id="node1" class="node"><title>FilterableProductTable</title>
<ellipse fill="none" stroke="black" cx="309" cy="-234" rx="100.1" ry="18"></ellipse>
<text text-anchor="middle" x="309" y="-229.8" font-family="Times,serif" font-size="14.00">FilterableProductTable</text>
</g>
<!-- SearchBar -->
<g id="node3" class="node"><title>SearchBar</title>
<ellipse fill="none" stroke="black" cx="243" cy="-162" rx="51.3755" ry="18"></ellipse>
<text text-anchor="middle" x="243" y="-157.8" font-family="Times,serif" font-size="14.00">SearchBar</text>
</g>
<!-- FilterableProductTable&#45;&gt;SearchBar -->
<g id="edge2" class="edge"><title>FilterableProductTable-&gt;SearchBar</title>
<path fill="none" stroke="black" d="M293.023,-216.055C284.715,-207.243 274.424,-196.328 265.34,-186.694"></path>
<polygon fill="black" stroke="black" points="267.782,-184.182 258.375,-179.307 262.689,-188.984 267.782,-184.182"></polygon>
</g>
<!-- ProductTable -->
<g id="node5" class="node"><title>ProductTable</title>
<ellipse fill="none" stroke="black" cx="375" cy="-162" rx="63.0906" ry="18"></ellipse>
<text text-anchor="middle" x="375" y="-157.8" font-family="Times,serif" font-size="14.00">ProductTable</text>
</g>
<!-- FilterableProductTable&#45;&gt;ProductTable -->
<g id="edge4" class="edge"><title>FilterableProductTable-&gt;ProductTable</title>
<path fill="none" stroke="black" d="M324.977,-216.055C333.165,-207.371 343.278,-196.644 352.264,-187.114"></path>
<polygon fill="black" stroke="black" points="354.857,-189.466 359.17,-179.789 349.764,-184.664 354.857,-189.466"></polygon>
</g>
<!-- ProductCategoryRow1 -->
<g id="node7" class="node"><title>ProductCategoryRow1</title>
<ellipse fill="none" stroke="black" cx="247" cy="-90" rx="99.3121" ry="18"></ellipse>
<text text-anchor="middle" x="247" y="-85.8" font-family="Times,serif" font-size="14.00">ProductCategoryRow1</text>
</g>
<!-- ProductTable&#45;&gt;ProductCategoryRow1 -->
<g id="edge6" class="edge"><title>ProductTable-&gt;ProductCategoryRow1</title>
<path fill="none" stroke="black" d="M347.226,-145.811C329.245,-135.978 305.576,-123.034 285.754,-112.194"></path>
<polygon fill="black" stroke="black" points="287.405,-109.107 276.952,-107.38 284.047,-115.249 287.405,-109.107"></polygon>
</g>
<!-- ProductCategoryRow2 -->
<g id="node9" class="node"><title>ProductCategoryRow2</title>
<ellipse fill="none" stroke="black" cx="502" cy="-90" rx="99.3121" ry="18"></ellipse>
<text text-anchor="middle" x="502" y="-85.8" font-family="Times,serif" font-size="14.00">ProductCategoryRow2</text>
</g>
<!-- ProductTable&#45;&gt;ProductCategoryRow2 -->
<g id="edge8" class="edge"><title>ProductTable-&gt;ProductCategoryRow2</title>
<path fill="none" stroke="black" d="M402.557,-145.811C420.317,-136.022 443.67,-123.15 463.282,-112.34"></path>
<polygon fill="black" stroke="black" points="465.213,-115.273 472.282,-107.38 461.834,-109.142 465.213,-115.273"></polygon>
</g>
<!-- ProductRow1 -->
<g id="node11" class="node"><title>ProductRow1</title>
<ellipse fill="none" stroke="black" cx="64" cy="-18" rx="64.216" ry="18"></ellipse>
<text text-anchor="middle" x="64" y="-13.8" font-family="Times,serif" font-size="14.00">ProductRow1</text>
</g>
<!-- ProductCategoryRow1&#45;&gt;ProductRow1 -->
<g id="edge10" class="edge"><title>ProductCategoryRow1-&gt;ProductRow1</title>
<path fill="none" stroke="black" d="M206.386,-73.4647C177.91,-62.5722 139.793,-47.9918 110.163,-36.658"></path>
<polygon fill="black" stroke="black" points="111.057,-33.2525 100.466,-32.9488 108.556,-39.7906 111.057,-33.2525"></polygon>
</g>
<!-- ProductRow2 -->
<g id="node13" class="node"><title>ProductRow2</title>
<ellipse fill="none" stroke="black" cx="210" cy="-18" rx="64.216" ry="18"></ellipse>
<text text-anchor="middle" x="210" y="-13.8" font-family="Times,serif" font-size="14.00">ProductRow2</text>
</g>
<!-- ProductCategoryRow1&#45;&gt;ProductRow2 -->
<g id="edge12" class="edge"><title>ProductCategoryRow1-&gt;ProductRow2</title>
<path fill="none" stroke="black" d="M238.043,-72.055C233.789,-64.0067 228.608,-54.2046 223.862,-45.2259"></path>
<polygon fill="black" stroke="black" points="226.899,-43.4807 219.131,-36.2753 220.71,-46.7519 226.899,-43.4807"></polygon>
</g>
<!-- ProductRow3 -->
<g id="node15" class="node"><title>ProductRow3</title>
<ellipse fill="none" stroke="black" cx="356" cy="-18" rx="64.216" ry="18"></ellipse>
<text text-anchor="middle" x="356" y="-13.8" font-family="Times,serif" font-size="14.00">ProductRow3</text>
</g>
<!-- ProductCategoryRow1&#45;&gt;ProductRow3 -->
<g id="edge14" class="edge"><title>ProductCategoryRow1-&gt;ProductRow3</title>
<path fill="none" stroke="black" d="M272.556,-72.5881C287.528,-62.9731 306.605,-50.7214 322.739,-40.3603"></path>
<polygon fill="black" stroke="black" points="324.832,-43.1761 331.355,-34.8274 321.049,-37.2861 324.832,-43.1761"></polygon>
</g>
<!-- ProductRow4 -->
<g id="node17" class="node"><title>ProductRow4</title>
<ellipse fill="none" stroke="black" cx="502" cy="-18" rx="64.216" ry="18"></ellipse>
<text text-anchor="middle" x="502" y="-13.8" font-family="Times,serif" font-size="14.00">ProductRow4</text>
</g>
<!-- ProductCategoryRow2&#45;&gt;ProductRow4 -->
<g id="edge16" class="edge"><title>ProductCategoryRow2-&gt;ProductRow4</title>
<path fill="none" stroke="black" d="M502,-71.6966C502,-63.9827 502,-54.7125 502,-46.1124"></path>
<polygon fill="black" stroke="black" points="505.5,-46.1043 502,-36.1043 498.5,-46.1044 505.5,-46.1043"></polygon>
</g>
<!-- ProductRow5 -->
<g id="node19" class="node"><title>ProductRow5</title>
<ellipse fill="none" stroke="black" cx="648" cy="-18" rx="64.216" ry="18"></ellipse>
<text text-anchor="middle" x="648" y="-13.8" font-family="Times,serif" font-size="14.00">ProductRow5</text>
</g>
<!-- ProductCategoryRow2&#45;&gt;ProductRow5 -->
<g id="edge18" class="edge"><title>ProductCategoryRow2-&gt;ProductRow5</title>
<path fill="none" stroke="black" d="M535.495,-72.9406C557.101,-62.5815 585.314,-49.0547 608.082,-38.1386"></path>
<polygon fill="black" stroke="black" points="609.647,-41.2697 617.151,-33.7904 606.621,-34.9577 609.647,-41.2697"></polygon>
</g>
</g>
</svg>